HIERARCHY
ROOT Hips
{
	OFFSET 0.00000 0.00000 0.00000
	CHANNELS 6 Xposition Yposition Zposition Zrotation Yrotation Xrotation 
	JOINT LHipJoint
	{
		OFFSET 0 0 0
		CHANNELS 3 Zrotation Yrotation Xrotation
		JOINT LeftHip
		{
			OFFSET 1.36337 -1.57426 1.11036
			CHANNELS 3 Zrotation Yrotation Xrotation
			JOINT LeftKnee
			{
				OFFSET 2.38468 -6.55187 0.00000
				CHANNELS 3 Zrotation Yrotation Xrotation
				JOINT LeftAnkle
				{
					OFFSET 2.37166 -6.51609 0.00000
					CHANNELS 3 Zrotation Yrotation Xrotation
					JOINT LeftToe
					{
						OFFSET 0.29078 -0.79891 2.01393
						CHANNELS 3 Zrotation Yrotation Xrotation
						End Site
						{
							OFFSET 0.00000 -0.00000 1.07924
						}
					}
				}
			}
		}
	}
	JOINT RHipJoint
	{
		OFFSET 0 0 0
		CHANNELS 3 Zrotation Yrotation Xrotation
		JOINT RightHip
		{
			OFFSET -1.36349 -1.57426 1.11036
			CHANNELS 3 Zrotation Yrotation Xrotation
			JOINT RightKnee
			{
				OFFSET -2.29562 -6.30717 0.00000
				CHANNELS 3 Zrotation Yrotation Xrotation
				JOINT RightAnkle
				{
					OFFSET -2.40985 -6.62100 0.00000
					CHANNELS 3 Zrotation Yrotation Xrotation
					JOINT RightToe
					{
						OFFSET -0.23197 -0.63733 1.92232
						CHANNELS 3 Zrotation Yrotation Xrotation
						End Site
						{
							OFFSET -0.00000 -0.00000 1.01562
						}
					}
				}
			}
		}
	}
	JOINT lowerback
	{
		OFFSET 0 0 0
		CHANNELS 3 Zrotation Yrotation Xrotation
		JOINT Chest
		{
			OFFSET -0.08565 2.03602 -0.24562
			CHANNELS 3 Zrotation Yrotation Xrotation
			JOINT Chest2
			{
				OFFSET -0.00036 2.05693 0.00216
				CHANNELS 3 Zrotation Yrotation Xrotation
				JOINT lowerneck
				{
					OFFSET 0 0 0
					CHANNELS 3 Zrotation Yrotation Xrotation
					JOINT Neck
					{
						OFFSET -0.03664 1.69515 0.31789
						CHANNELS 3 Zrotation Yrotation Xrotation
						JOINT Head
						{
							OFFSET 0.00932 1.70181 -0.46013
							CHANNELS 3 Zrotation Yrotation Xrotation
							End Site
							{
								OFFSET 0.01243 1.77620 -0.19377
							}
						}
					}
				}
				JOINT LeftCollar
				{
					OFFSET 0 0 0
					CHANNELS 3 Zrotation Yrotation Xrotation
					JOINT LeftShoulder
					{
						OFFSET 3.74344 0.81315 -0.36647
CHANNELS 3 Zrotation Xrotation Yrotation
						JOINT LeftElbow
						{
OFFSET 0 -4.971850 -0.000000
CHANNELS 3 Zrotation Xrotation Yrotation
							JOINT LeftWrist
							{
OFFSET 0 -3.358110 0.000000
CHANNELS 3 Zrotation Xrotation Yrotation
								JOINT lhand
								{
									OFFSET 0 0 0
CHANNELS 3 Zrotation Xrotation Yrotation
									JOINT LFingers
									{
OFFSET 0 -0.622780 0.000000
CHANNELS 3 Zrotation Xrotation Yrotation
										End Site
										{
OFFSET 0 -0.502100 0.000000
										}
									}
								}
								JOINT LThumb
								{
OFFSET 0 0.000000 0.000000
CHANNELS 3 Zrotation Xrotation Yrotation
									End Site
									{
OFFSET 0 -0.509760 0.509760
									}
								}
							}
						}
					}
				}
				JOINT RightCollar
				{
					OFFSET 0 0 0
					CHANNELS 3 Zrotation Yrotation Xrotation
					JOINT RightShoulder
					{
						OFFSET -3.75385 0.50666 -0.06525
CHANNELS 3 Zrotation Xrotation Yrotation
						JOINT RightElbow
						{
OFFSET 0 -4.964930 -0.000000
CHANNELS 3 Zrotation Xrotation Yrotation
							JOINT RightWrist
							{
OFFSET 0 -3.349290 0.000000
CHANNELS 3 Zrotation Xrotation Yrotation
								JOINT rhand
								{
									OFFSET 0 0 0
CHANNELS 3 Zrotation Xrotation Yrotation
									JOINT RFingers
									{
OFFSET 0 -0.638040 0.000000
CHANNELS 3 Zrotation Xrotation Yrotation
										End Site
										{
OFFSET 0 -0.514410 0.000000
										}
									}
								}
								JOINT RThumb
								{
OFFSET 0 0.000000 0.000000
CHANNELS 3 Zrotation Xrotation Yrotation
									End Site
									{
OFFSET 0 -0.522260 0.522260
									}
								}
							}
						}
					}
				}
			}
		}
	}
}
MOTION
Frames: 12
Frame Time: 0.008333333333333333
6.706300 15.494600 1.508400 166.991000 -80.090800 -160.487000 0.000000 0.000000 0.000000 -10.804300 4.265300 -39.324600 9.803400 17.297800 58.829300 1.705000 -5.458100 -23.535000 0.104300 -2.082800 -5.734400 0.000000 0.000000 0.000000 -1.438400 1.033800 -31.548600 -5.978700 -14.407700 44.896300 -0.345900 -0.004300 -11.111400 -1.132600 -6.759100 19.003500 -3.834700 1.287700 25.368300 0.374400 0.169800 6.165800 2.591400 -0.096900 -7.274500 -14.275700 -13.314800 -20.861500 5.235100 -15.312200 19.339200 1.566500 -7.435700 11.200500 0.000000 0.000000 0.000000 10.151400 -15.777200 -49.936000 40.038200 -48.092500 18.467700 19.998300 -20.056500 11.403800 0.000000 0.000000 0.000000 -7.125000 0.000000 0.000000 -5.001700 17.892800 -3.235500 0.000000 0.000000 0.000000 -3.144400 -17.544000 33.879800 -44.243500 -50.392400 -21.654300 -7.772300 -24.226000 27.420300 0.000000 0.000000 0.000000 7.125000 0.000000 -0.000000 24.224000 55.924600 -6.775700
6.696253 15.498857 1.522108 166.242603 -79.851551 -159.786282 0.000000 0.000000 0.000000 -11.105532 4.338948 -39.136692 9.772664 17.280005 58.725767 1.721177 -5.362741 -23.661776 0.084121 -1.868668 -5.142834 0.000000 0.000000 0.000000 -1.707704 1.053638 -31.494875 -5.950263 -14.380029 44.781954 -0.406010 0.262875 -11.942044 -0.639203 -5.060519 14.093877 -2.784134 1.327461 24.256517 -0.348284 0.418414 6.974818 1.124320 -0.038833 -5.830834 -14.762456 -13.788530 -20.819610 7.094429 -16.223899 18.611152 2.121029 -7.659112 11.241879 0.000000 0.000000 0.000000 11.163482 -17.314011 -51.525174 39.925302 -48.025578 18.383750 19.427424 -19.789750 11.987022 0.000000 0.000000 0.000000 -7.125000 0.000000 0.000000 -5.413191 17.327202 -3.572321 0.000000 0.000000 0.000000 -2.230657 -18.752334 32.876658 -43.882243 -50.208749 -21.376397 -9.607108 -23.479561 26.858789 0.000000 0.000000 0.000000 7.125000 0.000000 0.000000 22.041472 55.773047 -6.039563
6.688034 15.495102 1.533285 166.303172 -79.650537 -160.050561 0.000000 0.000000 0.000000 -11.201325 4.518654 -38.851159 9.776156 17.282031 58.737641 1.739392 -5.412729 -23.786374 0.075329 -1.770013 -4.870567 0.000000 0.000000 0.000000 -1.797222 1.136872 -31.263052 -5.929205 -14.359386 44.697058 -0.474695 0.509949 -12.838474 -0.289676 -3.327499 9.205199 -2.466769 1.355555 23.546968 -0.551642 0.498066 7.633781 0.702290 -0.039594 -4.755104 -15.767204 -14.009378 -20.269990 9.245084 -16.722682 17.343534 2.961122 -7.734507 11.049353 0.000000 0.000000 0.000000 11.409892 -18.311184 -52.112381 39.907146 -48.014743 18.370154 18.589469 -18.998192 12.140880 0.000000 0.000000 0.000000 -7.125000 0.000000 0.000000 -6.000180 17.235247 -3.975069 0.000000 0.000000 0.000000 -1.938082 -19.632513 32.700827 -43.805143 -50.169461 -21.317147 -10.416405 -23.230591 26.906077 0.000000 0.000000 0.000000 7.125000 0.000000 0.000000 21.266659 55.978677 -5.917215
6.677818 15.491371 1.545203 166.918304 -79.427177 -160.756618 0.000000 0.000000 0.000000 -11.196654 4.694398 -38.724125 9.788879 17.289410 58.780452 1.756597 -5.432032 -23.906187 0.071437 -1.724368 -4.744561 0.000000 0.000000 0.000000 -1.794249 1.303566 -31.162404 -5.912590 -14.343056 44.629915 -0.546467 0.746954 -13.717219 -0.084243 -1.545020 4.257098 -2.369750 1.384897 23.223857 -0.568504 0.552253 7.875868 0.616525 -0.026464 -4.329869 -16.802419 -14.124002 -19.691185 10.953617 -17.017668 16.586001 3.685162 -7.775562 10.987846 0.000000 0.000000 0.000000 11.276227 -18.606541 -52.357078 39.946155 -48.037880 18.399144 17.728253 -18.057555 12.256071 0.000000 0.000000 0.000000 -7.125000 0.000000 0.000000 -6.600825 17.185224 -4.385823 0.000000 0.000000 0.000000 -1.884405 -19.830422 32.770669 -43.926402 -50.231414 -21.410371 -10.581354 -23.381872 26.899825 0.000000 0.000000 0.000000 7.125000 0.000000 0.000000 21.098714 56.005467 -5.882277
6.672449 15.490306 1.554721 167.417776 -79.263161 -161.270484 0.000000 0.000000 0.000000 -11.178362 4.779203 -38.710496 9.802713 17.297413 58.826931 1.769987 -5.376787 -24.007172 0.069532 -1.701441 -4.681268 0.000000 0.000000 0.000000 -1.782390 1.456017 -31.155924 -5.904051 -14.334691 44.595444 -0.642939 1.017959 -14.811924 -0.074887 0.727372 -2.008714 -2.336164 1.403612 23.135689 -0.556611 0.585326 7.908131 0.602134 -0.012241 -4.251408 -17.355668 -14.196786 -19.380526 11.811324 -17.188609 16.273363 4.047681 -7.811940 10.990073 0.000000 0.000000 0.000000 11.013034 -18.613928 -52.478114 40.016797 -48.079770 18.451714 17.101144 -17.335010 12.452338 0.000000 0.000000 0.000000 -7.125000 0.000000 0.000000 -7.038314 17.032032 -4.704473 0.000000 0.000000 0.000000 -1.874817 -19.748897 32.894807 -44.036286 -50.287554 -21.494842 -10.955526 -23.567916 26.894771 0.000000 0.000000 0.000000 7.125000 0.000000 0.000000 20.720686 56.075969 -5.804636
6.674403 15.489820 1.559951 167.541082 -79.186904 -161.411766 0.000000 0.000000 0.000000 -11.179808 4.783485 -38.711806 9.816745 17.305520 58.874129 1.779597 -5.292751 -24.084771 0.067337 -1.673926 -4.605392 0.000000 0.000000 0.000000 -1.795793 1.550286 -31.160087 -5.906314 -14.336962 44.604658 -0.770581 1.330417 -16.171143 -0.316719 3.393126 -9.399777 -2.349283 1.406434 23.148474 -0.555023 0.583141 7.926300 0.611972 -0.014897 -4.238129 -17.439022 -14.254760 -19.304138 12.044479 -17.294379 16.083242 4.123715 -7.846184 10.957379 0.000000 0.000000 0.000000 10.719330 -18.626942 -52.476508 40.116338 -48.138595 18.525823 16.768523 -17.001439 12.630588 0.000000 0.000000 0.000000 -7.125000 0.000000 0.000000 -7.270286 16.874168 -4.886775 0.000000 0.000000 0.000000 -1.857751 -19.704428 33.058274 -44.048608 -50.293817 -21.504326 -11.980292 -23.515276 27.167300 0.000000 0.000000 0.000000 7.125000 0.000000 0.000000 19.863045 56.540037 -5.772070
6.677495 15.486049 1.563015 167.585180 -79.111003 -161.478978 0.000000 0.000000 0.000000 -11.191938 4.805841 -38.702484 9.830711 17.313603 58.921142 1.788380 -5.258527 -24.150353 0.062923 -1.618136 -4.451407 0.000000 0.000000 0.000000 -1.825152 1.648827 -31.185651 -5.918161 -14.348596 44.652409 -0.891676 1.605366 -17.375053 -0.729822 5.458062 -15.219917 -2.411695 1.405950 23.203706 -0.546338 0.565975 7.920688 0.661050 -0.024169 -4.272040 -17.541662 -14.307735 -19.191401 12.287747 -17.398233 15.904854 4.208162 -7.881365 10.925773 0.000000 0.000000 0.000000 10.381738 -18.581806 -52.293089 40.249553 -48.217036 18.625093 16.586650 -17.002826 12.638663 0.000000 0.000000 0.000000 -7.125000 0.000000 0.000000 -7.396273 16.880130 -4.971926 0.000000 0.000000 0.000000 -1.863011 -19.619138 33.253821 -44.056028 -50.297586 -21.510017 -13.230941 -23.247133 27.792287 0.000000 0.000000 0.000000 7.125000 0.000000 0.000000 18.994529 57.387001 -5.905519
6.679028 15.480940 1.565484 167.453210 -78.964304 -161.376808 0.000000 0.000000 0.000000 -11.259711 4.890897 -38.685881 9.841779 17.319904 58.958349 1.798427 -5.297181 -24.216679 0.059176 -1.569776 -4.318074 0.000000 0.000000 0.000000 -1.917361 1.796548 -31.252743 -5.938254 -14.368178 44.733294 -0.892272 1.612943 -17.379396 -0.689975 5.310256 -14.795569 -2.566228 1.414975 23.227290 -0.541144 0.541454 7.917452 0.761092 -0.038047 -4.288047 -17.568822 -14.325275 -19.056451 12.385404 -17.449488 15.785229 4.242389 -7.903842 10.880052 0.000000 0.000000 0.000000 10.008561 -18.521441 -51.874021 40.359811 -48.281659 18.707426 16.537608 -17.289414 12.690940 0.000000 0.000000 0.000000 -7.125000 0.000000 0.000000 -7.430585 16.830152 -5.003514 0.000000 0.000000 0.000000 -1.903113 -19.522928 33.330874 -44.086850 -50.313167 -21.533686 -13.356014 -23.134405 28.157035 0.000000 0.000000 0.000000 7.125000 0.000000 0.000000 19.105383 57.758135 -6.114372
6.681047 15.475994 1.567872 167.038078 -78.849247 -160.993098 0.000000 0.000000 0.000000 -11.375597 4.915022 -38.670982 9.849521 17.324338 58.984278 1.806364 -5.279122 -24.274161 0.059406 -1.573017 -4.326972 0.000000 0.000000 0.000000 -2.052165 1.856887 -31.296792 -5.951046 -14.380702 44.784808 -0.889947 1.647782 -17.346984 -0.691102 5.314497 -14.807811 -2.687414 1.409802 23.204141 -0.581873 0.503302 7.944643 0.796550 -0.059471 -4.246204 -17.592007 -14.362043 -18.964908 12.518437 -17.531656 15.682968 4.279699 -7.934514 10.857129 0.000000 0.000000 0.000000 9.632707 -18.551703 -51.309558 40.462038 -48.341251 18.783673 16.751363 -17.998472 12.919848 0.000000 0.000000 0.000000 -7.125000 0.000000 0.000000 -7.284453 16.577417 -4.943662 0.000000 0.000000 0.000000 -1.903053 -19.463066 33.328739 -44.184121 -50.362419 -21.608552 -13.357032 -23.230600 28.154971 0.000000 0.000000 0.000000 7.125000 0.000000 0.000000 19.102730 57.756371 -6.112598
6.684019 15.472514 1.567671 167.117972 -78.839344 -161.060088 0.000000 0.000000 0.000000 -11.342482 4.911415 -38.720457 9.860346 17.330602 59.020653 1.801406 -5.223997 -24.245973 0.061621 -1.601275 -4.404995 0.000000 0.000000 0.000000 -2.029346 1.885737 -31.329364 -5.964537 -14.393872 44.839046 -0.890195 1.651757 -17.348480 -0.683118 5.284160 -14.720921 -2.693884 1.380862 23.405483 -0.589809 0.465803 7.780403 0.800452 -0.068475 -4.524539 -17.612277 -14.387765 -18.896917 12.559236 -17.603752 15.816715 4.284487 -7.965856 10.912347 0.000000 0.000000 0.000000 9.202307 -18.284814 -50.711405 40.693771 -48.475356 18.957113 17.181832 -19.324755 12.911790 0.000000 0.000000 0.000000 -7.125000 0.000000 0.000000 -6.986847 16.550814 -4.742962 0.000000 0.000000 0.000000 -1.873571 -19.051145 33.264370 -44.432538 -50.487166 -21.800141 -13.424497 -23.286610 28.151693 0.000000 0.000000 0.000000 7.125000 0.000000 0.000000 19.031110 57.767740 -6.093861
6.677690 15.474128 1.569048 167.685711 -78.754186 -161.703067 0.000000 0.000000 0.000000 -11.248180 5.020168 -38.613970 9.866234 17.333968 59.040362 1.804890 -5.183440 -24.275282 0.062237 -1.609087 -4.426549 0.000000 0.000000 0.000000 -1.929696 1.970149 -31.222939 -5.966246 -14.395549 44.846088 -0.891783 1.699319 -17.352843 -0.677826 5.264161 -14.663593 -2.672491 1.377649 24.084276 -0.555783 0.467811 7.307700 0.820190 -0.041600 -5.381245 -17.698414 -14.329292 -18.636695 12.459905 -17.572896 16.184815 4.280797 -7.975112 10.993291 0.000000 0.000000 0.000000 8.678210 -17.411196 -50.073003 41.175867 -48.749878 19.319193 17.895969 -21.506405 12.553772 0.000000 0.000000 0.000000 -7.125000 0.000000 0.000000 -6.487465 16.863588 -4.357223 0.000000 0.000000 0.000000 -1.891965 -18.035988 33.240373 -44.830302 -50.684348 -22.107585 -13.589747 -23.350406 28.169063 0.000000 0.000000 0.000000 7.125000 0.000000 0.000000 18.872246 57.819763 -6.064310
6.676971 15.475557 1.568872 168.181508 -78.745883 -162.230516 0.000000 0.000000 0.000000 -11.136963 5.060323 -38.570774 9.867766 17.334819 59.045480 1.804929 -5.179527 -24.275912 0.061069 -1.594140 -4.385251 0.000000 0.000000 0.000000 -1.820006 2.006792 -31.175428 -5.963139 -14.392539 44.833755 -0.892534 1.718633 -17.355671 -0.672284 5.243039 -14.603103 -2.631957 1.349328 24.624162 -0.509556 0.444626 6.925112 0.850674 -0.031749 -6.069503 -17.802590 -14.276376 -18.380327 12.430522 -17.542788 16.412786 4.304520 -7.980107 11.033442 0.000000 0.000000 0.000000 8.157553 -16.719628 -49.306578 41.793198 -49.095845 19.784453 18.831311 -24.458684 11.920697 0.000000 0.000000 0.000000 -7.125000 0.000000 0.000000 -5.826862 17.446917 -3.835650 0.000000 0.000000 0.000000 -1.923117 -17.263106 33.190892 -45.152315 -50.842826 -22.356793 -13.675023 -23.599622 28.276522 0.000000 0.000000 0.000000 7.125000 0.000000 0.000000 18.856023 57.939687 -6.114224
